<svg viewBox="0 0 96 96" xmlns="http://www.w3.org/2000/svg" stroke-linecap="round" stroke-linejoin="round">
	<circle cx="48" cy="48" r="41" fill="none" stroke="#532600" stroke-width="4" />
	<circle cx="48" cy="48" r="41" fill="#b45f04" />

	<g fill="#532600" fill-rule="evenodd" stroke="#532600" stroke-width="6">
		<path d="M4.879 38.319c1.411-.199 2.557.775 3.44 2.922l.16 1.132c.277 1.967-.034 8.716-.933 20.248l.261 1.856.186-.026 16.579-6.31.954.055 2.174-.685.928-.13c1.373-.194 2.086-.105 2.138.266l.026.186c.157 1.113-3.428 3.069-10.755 5.868-4.97 2.605-8.722 4.275-11.255 5.01-3.468-.344-5.363-1.66-5.685-3.949l.946-17.601-.259-3.181-.844-3.306c.18-1.413.764-2.19 1.754-2.329l.185-.026Z" />
		<path d="M33.231 39.422c4.704-.549 7.404.48 8.103 3.086.524 1.955-1.8 4.602-6.972 7.941l-3.301 1.292-1.502.402-.278.482.354 1.322c.604 2.256 3.043 2.812 7.314 1.668l.381-.102.15-.235.23.133.199-.053 11.799-5.781.609.031c.473 1.761-2.688 4.568-9.481 8.419-1.022.675-2.668 1.316-4.936 1.924-6.068.526-9.74-1.594-11.017-6.361l-.479-3.306-.836-1.599c-.336-1.255.63-2.187 2.899-2.795 2.217-3.698 4.472-5.854 6.764-6.468Zm-2.724 8.005.199-.053c3.234-.867 5.482-2.543 6.743-5.028-.413-.575-.999-.76-1.759-.556l-.381.101c-1.641.44-3.258 2.225-4.851 5.355l.049.181Z" />
		<path d="M46.988 35.794c1.581-.424 3.392 1.193 5.432 4.849l.562-.15c1.897-3.393 3.558-5.28 4.982-5.661 1.014-.272 1.887.283 2.619 1.665l.145.543c-.233.722-1.124 1.814-2.672 3.277-1.641 2.225-2.405 3.548-2.292 3.97 1.986 2.391 4.351 4.584 7.097 6.577.091.338-.289.899-1.14 1.683-1.556.417-4.059-1.079-7.508-4.488l-.229-.132-.181.048c-.945.771-1.721 3.281-2.328 7.531l-1.749.857c-.967-.181-1.609-.863-1.926-2.046-.113-2.401.739-5.591 2.557-9.57l-4.853-6.383c-.205-1.393.29-2.25 1.484-2.57Z" />
		<path d="m64.121 29.457.217-.058c1.304-.35 2.208.417 2.712 2.3.137 1.67-.373 2.661-1.532 2.971l-.217.058c-1.448.388-2.444-.431-2.987-2.459l-.058-.217c-.35-1.303.272-2.168 1.865-2.595Zm1.2 9.689c1.693-.052 2.78.82 3.262 2.618l.04 8.837-.159.275-1.955.524c-.435.116-1.194-.689-2.278-2.417l-.058-.217c-.888-5.97-.506-9.177 1.148-9.62Z" />
		<path d="M71.796 21.571c-1.135.304-2.677 1.351-2.169 2.841l1.203 3.765.359 3.822.036.135c.314 1.027.966 1.408 1.955 1.143 1.726-.462 2.355-2.626 1.103-9.952-.379-1.416-1.112-2.12-2.367-1.784l-.12.03Z" />
		<path d="M71.1 21.484c-1.134.304-2.677 1.351-2.168 2.841l1.203 3.765.358 3.822.037.135c.314 1.027.965 1.408 1.955 1.143 1.726-.462 2.355-2.626 1.103-9.952-.379-1.416-1.112-2.12-2.367-1.784l-.121.03Z" />
		<path d="M83.262 25.161c1.863-.098 2.879.172 3.051.812.278 1.038-1.154 2.501-4.295 4.391l-.23.663.257.959 8.038 5.742c1.171 1.329 1.857 2.368 2.057 3.116.544 2.027-.617 3.755-3.481 5.182L86.1 47.119c-3.854.243-6.037-.594-6.552-2.513.03-.564.244-1.022.641-1.374l.199-.054c1.33.717 2.786.864 4.367.44 2.393-1.158 3.519-1.997 3.38-2.516-.242-.905-2.74-2.673-7.494-5.306-1.749-1.458-2.77-2.737-3.065-3.835-.717-2.679 1.178-4.946 5.686-6.8Z" />
	</g>

	<g fill="#ef9d00">
		<path d="M3.9 37.339c1.41-.198 2.557.776 3.44 2.922l.159 1.132c.277 1.967-.034 8.717-.933 20.249l.262 1.856.185-.027 16.579-6.309.954.055 2.175-.685.927-.131c1.374-.193 2.086-.104 2.139.267l.026.185c.157 1.114-3.429 3.07-10.756 5.868-4.97 2.605-8.721 4.276-11.255 5.011-3.467-.344-5.362-1.661-5.684-3.95l.946-17.6-.259-3.181-.844-3.307c.179-1.413.764-2.189 1.753-2.329l.186-.026Z" />
		<path d="M32.252 38.442c4.703-.549 7.404.48 8.102 3.087.524 1.955-1.8 4.602-6.971 7.94l-3.301 1.292-1.503.403-.278.482.354 1.321c.605 2.257 3.043 2.813 7.315 1.668l.38-.102.151-.234.229.132.199-.053 11.799-5.781.61.031c.472 1.762-2.689 4.568-9.482 8.419-1.022.675-2.667 1.316-4.936 1.924-6.067.527-9.739-1.594-11.017-6.36l-.478-3.306-.836-1.6c-.336-1.255.63-2.186 2.899-2.794 2.216-3.698 4.471-5.854 6.764-6.469Zm-2.725 8.006.199-.054c3.235-.866 5.482-2.542 6.744-5.027-.413-.575-1-.761-1.76-.557l-.38.102c-1.641.44-3.258 2.225-4.851 5.355l.048.181Z" />
		<path d="M46.009 34.814c1.581-.423 3.392 1.193 5.432 4.85l.561-.15c1.898-3.393 3.558-5.28 4.982-5.662 1.014-.271 1.887.284 2.62 1.665l.145.543c-.233.723-1.124 1.815-2.672 3.277-1.642 2.225-2.406 3.549-2.293 3.971 1.986 2.391 4.352 4.583 7.098 6.576.09.338-.29.899-1.14 1.683-1.557.417-4.06-1.078-7.508-4.487l-.23-.133-.181.049c-.944.77-1.72 3.28-2.328 7.53l-1.749.857c-.967-.181-1.608-.862-1.925-2.045-.113-2.401.739-5.592 2.557-9.571l-4.853-6.382c-.205-1.394.289-2.251 1.484-2.571ZM63.142 28.477l.217-.058c1.303-.349 2.207.418 2.711 2.3.138 1.671-.373 2.661-1.531 2.972l-.218.058c-1.448.388-2.443-.432-2.987-2.459l-.058-.217c-.349-1.304.273-2.169 1.866-2.596Zm1.199 9.69c1.693-.053 2.781.82 3.263 2.618l.039 8.836-.159.276-1.955.523c-.434.117-1.193-.689-2.277-2.416l-.058-.217c-.889-5.97-.506-9.177 1.147-9.62ZM70.816 20.591c-1.134.304-2.677 1.352-2.168 2.841l1.203 3.766.359 3.822.036.134c.314 1.028.965 1.409 1.955 1.143 1.726-.462 2.355-2.625 1.103-9.952-.379-1.416-1.112-2.12-2.367-1.783l-.121.029Z" />
		<path transform="translate(0.2,0.2)" d="M82.283 24.181c1.862-.098 2.879.173 3.05.812.278 1.038-1.153 2.502-4.294 4.391l-.23.663.257.959 8.038 5.743c1.171 1.329 1.856 2.367 2.057 3.115.543 2.028-.617 3.755-3.481 5.182l-2.559 1.093c-3.854.244-6.038-.594-6.552-2.512.03-.565.243-1.023.64-1.375l.2-.053c1.33.717 2.785.863 4.366.44 2.393-1.159 3.52-1.997 3.381-2.516-.243-.905-2.741-2.674-7.494-5.306-1.749-1.459-2.771-2.737-3.065-3.835-.718-2.679 1.177-4.946 5.686-6.801Z" />
	</g>
</svg>
