<svg viewBox="0 0 144 32" version="1.1" xmlns="http://www.w3.org/2000/svg">
	<defs>
		<title>Synthetic Genesis Technologies Grant Recipient 2049</title>

		<linearGradient id="sgt-grad-logo" x1="0" y1="0" x2="0" y2="1">
			<stop offset="0" stop-color="var(--wa-color-orange-50)" />
			<stop offset="1" stop-color="var(--wa-color-orange-40)" />
		</linearGradient>
	</defs>

	<rect fill="var(--wa-color-warning-border-quiet)" width="144" height="32" rx="4" />
	<rect fill="var(--wa-color-warning-fill-quiet)" x="2" y="2" width="140" height="28" rx="3" />

	<path fill="url(#sgt-grad-logo)" d="m 13.19793,28.8221 c -0.56852,-0.08 -0.57455,-0.6481 -0.74259,-1.0792 -0.0704,-0.5271 0.12175,-1.0772 0.15395,-1.6123 1.43491,-0.2771 2.93711,-0.08 4.37501,-0.3271 0.9278,-0.2411 1.8756,-0.4901 2.8255,-0.5401 1.5797,-0.7422 3.1323,-1.5413 4.7252,-2.2575 0.646,-0.7332 1.9169,-1.2823 2.737,-2.0374 1.0615,-0.8842 1.9973,-1.9134 3.1413,-2.6866 1.5838,-1.3253 2.731,-3.0756 4.2785,-4.4299 -0.5635,1.8244 -1.9692,3.1966 -2.9985,4.759 -1.5728,1.7303 -3.2481,3.3927 -5.1116,4.815 -1.0918,0.6131 -1.9712,1.5303 -3.0911,2.1104 -0.9006,0.6202 -1.8072,1.1713 -2.7279,1.7604 -0.5192,0.4681 -1.2598,0.2821 -1.8052,0.6941 -0.8482,0.3061 -1.7125,0.6452 -2.5809,0.8712 -0.9297,0.03 -1.8796,0.1651 -2.79731,0.1331 -0.1278,-0.06 -0.25457,-0.1151 -0.38136,-0.1731 z m 7.87977,0.08 c 0.7315,-0.6471 1.6672,-1.0212 2.3041,-1.7043 0.9982,-0.5161 1.9048,-1.0862 2.9735,-1.4753 1.2738,-0.4371 2.4703,-1.0192 3.5741,-1.7844 1.6874,-1.1322 3.1937,-2.4955 4.7242,-3.8228 0.4488,-0.2651 1.7398,-2.0404 1.8464,-1.0592 -0.152,0.7711 -1.2789,1.2882 -1.6835,2.0834 -0.9498,1.0602 -1.9762,2.0504 -3.1252,2.8856 -1.0163,0.8102 -2.0316,1.5813 -3.1324,2.2755 -1.616,0.8802 -3.2501,1.7794 -4.9144,2.5455 -0.8563,0.05 -1.7126,0.1001 -2.5688,0.1461 v -0.07 z m -11.61285,-3.2246 c -0.54235,-0.7312 -1.30607,-1.3573 -1.7961,-2.0925 0.0302,-0.7891 -0.0503,-1.6013 0.0302,-2.3765 0.40049,-0.5241 0.37834,-1.2742 0.71543,-1.7513 0.77177,-0.9903 1.08068,-2.3175 2.09193,-3.1647 0.7768,-1.0892 1.53449,-2.1945 2.53065,-3.1187 1.01124,-1.0412 2.00434,-2.0994 2.98744,-3.1666 0.1811,-0.63726 -0.4045,-0.96332 -0.7224,-1.42542 -0.4327,-0.68414 -1.65024,-1.97742 -0.05,-2.01642 3.1636,-0.59513 6.301,-1.34329 9.4233,-2.11645 0.7698,-0.41209 1.6281,-0.57812 2.429,-0.88919 0.5222,-0.52111 0.8623,0.10903 0.3069,0.49611 -0.7366,1.03722 -1.2015,2.20046 -1.7951,3.3227 -0.6007,1.12423 -1.2508,2.25647 -1.7539,3.40677 -0.49,1.1073 -1.2064,2.1255 -1.6572,3.2867 -0.2274,0.3751 -0.2526,0.9632 -0.7788,1.0222 -0.3905,-0.105 -0.7003,-0.6241 -1.0606,-0.8831 -0.3371,-0.3141 -0.6731,-0.6282 -1.0092,-0.9432 -1.1118,0.438 -1.3966,1.7923 -2.3274,2.4995 -0.8815,1.1722 -1.8565,2.2194 -2.923,3.2197 -1.32825,1.2932 -2.15939,2.9506 -3.11731,4.5009 -0.51921,0.8452 -0.64801,1.8374 -1.10181,2.7116 -0.14188,-0.1741 -0.28375,-0.3481 -0.42563,-0.5221 z m 6.79105,-1.1733 c -0.4176,-0.4611 0.2545,-1.2272 0.2998,-1.7724 0.8492,-2.0364 2.0214,-4.0028 3.6516,-5.5161 0.6872,-0.145 0.8129,1.0872 1.5163,0.9202 0.3693,-0.04 0.7044,-0.5721 0.793,-0.9122 0.03,-1.1072 0.7133,-2.1075 1.2949,-2.9576 0.4498,-0.6842 0.9781,-1.8264 1.604,-2.5946 0.2927,-0.7261 0.7898,-0.9412 1.5184,-1.0582 1.146,-0.3261 2.3193,-0.62923 3.4322,-1.08332 0.5785,-0.07 2.3596,-1.11924 1.4228,0.17704 -0.7095,1.09628 -1.132,2.29758 -1.8253,3.40778 -0.9952,1.7574 -1.7337,3.6678 -2.9,5.3241 -0.484,-0.4631 -0.8985,-1.0832 -1.4268,-1.4493 -0.5695,-0.08 -0.813,0.6072 -1.2265,0.8962 -1.8998,1.8734 -3.5681,3.9639 -5.0211,6.1973 -0.6057,0.1091 -0.9469,0.6522 -1.624,0.5161 -0.4508,0 -0.965,0.1511 -1.3755,0.04 -0.04,-0.04 -0.091,-0.09 -0.1338,-0.134 z m -8.47546,-7.5936 c -0.5826,-0.5511 -0.96899,-1.2993 -0.68523,-2.0834 0.31192,-0.6782 0.24853,-1.5003 0.78384,-2.0645 0.63693,-1.0492 1.35638,-2.0324 2.22476,-2.91065 0.73051,-0.81317 1.49524,-1.59634 2.31631,-2.31849 0.72448,0.29906 2.38278,1.59934 1.36242,2.41551 -1.04445,1.17633 -2.36159,2.13153 -3.15147,3.51183 -0.79291,1.2653 -1.83737,2.4545 -2.103,3.9598 -0.32401,0.04 -0.53028,-0.337 -0.74763,-0.5101 z m 4.96268,-10.83935 c -0.60977,-1.03522 1.51638,-0.88919 2.07478,-1.26827 0.8312,-0.43109 1.8092,-0.57412 2.6434,-0.85017 0.6047,-0.48911 1.4771,-0.31307 2.1463,-0.78417 0.8934,-0.53311 0.5162,0.32307 0.1559,0.82718 -0.2264,0.45909 -0.815,0.5171 -1.2115,0.78916 -0.7184,0.09 -1.5003,0.03 -2.1804,0.20504 -0.5766,0.54412 -1.5989,0.15004 -2.2962,0.62013 -0.48907,0 -0.92778,0.9272 -1.33228,0.4611 z" />

	<g font-family="var(--font-castithan)" font-weight="normal">
		<text fill="var(--wa-color-warning-on-quiet)" x="41" y="12.5" font-size="14">syntheticgenesis</text>
		<text fill="var(--wa-color-neutral-on-quiet)" x="41" y="26" font-size="9">grant recipient 2049</text>
	</g>
</svg>
