<svg width="512" height="512" viewBox="0 0 512 512" xmlns="http://www.w3.org/2000/svg">
	<path fill="currentColor" d="M92.615 495.38c-15.946-3.218-32.249-16.116-40.287-31.871l-4.215-8.261-2.03-14.511c-1.115-7.98-2.504-18.811-3.083-24.067l-1.056-9.556 4.63-5.534c2.548-3.043 15.653-18.333 29.125-33.978 13.47-15.644 27.804-32.616 31.854-37.717l7.36-9.272 11.381-5.047c27.999-12.417 125.415-48.529 126.794-47.004.257.284.845 6.918 1.306 14.742l.836 14.224-7.513 1.119c-4.13.616-23.757 2.603-43.612 4.417-19.856 1.816-38.843 3.852-42.192 4.525l-6.091 1.226 1.064 9.437c1.421 12.608-2.591 12.032 49.298 7.059 25.402-2.434 46.602-4.01 47.11-3.502 1.422 1.421 4.931 38.263 3.756 39.437-.569.57-7.84 1.763-16.158 2.651l-15.125 1.616-4.096-2.192-4.094-2.191-6.736 3.115-6.736 3.117-16.989 1.428c-9.344.783-18.798 1.953-21.009 2.595l-4.02 1.17 1.402 21.374c.77 11.756 1.968 24.92 2.66 29.259l1.262 7.883-10.323 1.346c-5.676.739-15.199 1.523-21.157 1.739l-10.839.399-5.619-3.682-5.622-3.684v-4.199c0-2.308-.764-4.198-1.698-4.198h-1.699l-2.549-12.338c-1.401-6.787-2.644-18.015-2.76-24.953-.128-6.937-.89-15.003-1.72-17.923l-1.508-5.309-5.738 9.025-5.74 9.026H84.27l-2.234 4.175-2.234 4.179 2.219 25.02c1.221 13.763 2.741 27.626 3.378 30.807l1.158 5.785 6.377 5.364 6.377 5.367 16.297-.149c8.961-.09 33.733-1.763 55.05-3.74 21.314-1.977 38.756-3.34 38.756-3.026 0 .317-4.957 9.406-11.016 20.2-6.056 10.796-11.074 19.777-11.148 19.964-.255.643-78.066 7.097-82.624 6.853-2.518-.128-7.923-.92-12.011-1.746zm111.517-16.594c3.135-5.549 14.795-27.051 25.912-47.781 21.239-39.61 23.651-43.358 18.478-28.697-5.188 14.706-11.814 42.364-10.47 43.708.979.979 84.482-5.328 124.261-9.386 4.088-.416 12.211-1.244 18.051-1.845 5.84-.599 18.74-1.652 28.668-2.34 9.928-.689 21.742-2.196 26.25-3.352l8.199-2.098 5.074-5.474 5.073-5.473-.06-12.962c-.02-7.129-.926-22.041-1.992-33.137-1.066-11.096-2.51-27.819-3.208-37.163-.697-9.344-1.778-20.469-2.402-24.721l-1.132-7.732 17.454-19.38c9.601-10.658 17.734-19.1 18.078-18.756.344.344 1.223 8.722 1.954 18.618.732 9.896 2.187 20.86 3.236 24.364 1.049 3.504 3.829 15.105 6.176 25.783l4.27 19.409-3.117 6.248-3.116 6.246 1.737 17.876c.956 9.832 1.517 22.948 1.247 29.144l-.488 11.27-2.714 6.781c-1.493 3.731-5.335 10.667-8.535 15.413l-5.819 8.633-8.133 5.341c-4.473 2.939-11.41 6.47-15.418 7.85l-7.288 2.508-45.802 4.199c-25.192 2.308-51.537 4.689-58.545 5.29-7.008.599-39.731 3.478-72.715 6.396-32.986 2.918-61.975 5.305-64.421 5.305h-4.447zm82.175-60.523-2.2-2.654-.735-16.545-.734-16.548 4.268-.823c2.347-.453 11.911-1.608 21.255-2.566l16.989-1.743-.665-11.68c-.367-6.424-1.149-13.353-1.737-15.396l-1.07-3.717H313.016l1.448-3.716c.794-2.045 2.448-8.666 3.676-14.716l2.228-11.003-1.478-11.826-1.478-11.829h-8.189v-2.006c0-1.103 5.311-12.041 11.803-24.307l11.803-22.3 11.026-3.135c15.105-4.298 64.506-16.207 67.22-16.207h2.204v19.113l-9.025.25c-4.965.128-11.892.979-15.396 1.873l-6.371 1.62 8.907.253 8.906.251 5.638 4.846 5.636 4.848 1.126 10 1.127 10-2.656 3.205-2.659 3.202h-7.702c-4.239 0-12.723.62-18.854 1.357l-11.149 1.34v4.056c0 2.232-1.531 7.016-3.399 10.631l-3.4 6.577 3.378-1.298 3.379-1.295.977 4.701c.537 2.587 1.576 12.349 2.308 21.693.733 9.344 1.814 19.036 2.402 21.538l1.072 4.548-21.333 18.711c-26.666 23.388-26.218 25.953.745 4.265l20.242-16.282v7.054l18.582-1.407 18.581-1.408 4.961 12.985c2.727 7.148 5.337 16.036 5.797 19.761l.841 6.765-67.384 5.891c-77.475 6.772-69.448 6.433-72.249 3.052zM40.759 386.847c-.775-7.541-1.892-17.059-2.482-21.154l-1.073-7.439 18.467-9.159 18.467-9.159 1.773 2.797c6.023 9.497 1.332 20.155-18.01 40.928l-15.734 16.893zm-3.357-36.966c0-.525-1.506-17.966-3.345-38.756l-3.343-37.8 1.415-13.519 1.416-13.519-2.119 1.311-2.119 1.31-1.279-10.089c-.703-5.549-3.697-38.236-6.653-72.636l-5.377-62.545 2.221-10.35c3.528-16.452 10.803-27.267 25.73-38.25l8.055-5.926 14.466-2.96 14.466-2.96 27.606-1.258c15.184-.691 34.774-2.312 43.534-3.601l15.927-2.344 2.481-3.076 2.48-3.076 4.791 2.564 4.791 2.564 32.593-2.703c17.927-1.486 32.886-2.326 33.245-1.865 1.132 1.459-2.049 35.765-3.447 37.162-.732.734-39.951 4.849-87.148 9.142l-85.815 7.807-5.7 3.736-5.702 3.736-2.276 5.73-2.277 5.727 2.544 31.854c1.4 17.521 2.95 36.156 3.447 41.41.985 10.457 13.617 155.45 13.617 156.314 0 .295-7.047 4.424-15.658 9.178-13.822 7.631-22.567 10.612-22.567 7.688zm66.985-44.458-1.47-15.68 2.631-8.786 2.633-8.789 4.762-1.194 4.761-1.195 4.064 2.174 4.063 2.175 3.792 8.411 3.793 8.41-9.006 12.425c-8.841 12.2-14.173 17.734-17.087 17.734-.807 0-2.127-7.056-2.936-15.685zm36.589-17.764c10.319-13.724 24.795-33.722 32.171-44.44l13.406-19.491 5.872-2.431c7.891-3.266 16.048-12.09 20.061-21.697l3.298-7.896v-13.939l7.518-13.803c4.132-7.593 10.431-19.776 13.992-27.077 7.201-14.755 7.233-14.778 13.118-9.557l4.19 3.716-1.194-13.567-1.193-13.566 3.436-7.205 3.436-7.204 4.353-.852c2.393-.468 16.065-1.825 30.38-3.015l26.027-2.164 5.335-5.944 5.334-5.944-1.412 6.162-1.41 6.16 16.768-1.91c9.223-1.052 24.133-1.908 33.132-1.903h16.365l2.079 2.112 2.079 2.112-6.093 15.61c-3.349 8.585-6.632 16.151-7.294 16.813-4.738 4.738-54.358 6.458-69.714 2.417l-7.993-2.103-7.403-6.502c-8.643-7.587-9.21-6.261-2.638 6.15l4.781 9.025H309.204v2.018c0 1.11-1.495 2.854-3.319 3.876l-3.32 1.857 1.498 5.962 1.495 5.963 21.467-1.408c11.805-.775 27.486-1.996 34.844-2.711l13.381-1.302-5.668 12.516a4036.577 4036.577 0 0 0-9.108 20.256l-3.438 7.741-23.916 1.495-23.916 1.493v18.972l2.319 4.334 2.319 4.335 13.608-1.457 13.608-1.457v2.478c0 1.364-3.349 8.465-7.441 15.783l-7.441 13.304-14.326 3.844c-7.879 2.113-20.707 5.995-28.505 8.626l-14.177 4.787-1.13-7.786c-.622-4.281-1.748-12.877-2.504-19.106l-1.374-11.32-10.429 11.701c-11.839 13.283-20.242 19.023-36.318 24.807l-11.204 4.033 8.494-.02c4.672 0 14.944-.75 22.829-1.627l14.335-1.595v7.654h-2.279c-3.614 0-74.968 27.188-101.128 38.535-13.073 5.67-24.33 10.308-25.016 10.308-.686 0 7.194-11.23 17.513-24.953zm131.216 1.062c-.618-3.797-1.379-11.185-1.691-16.422l-.565-9.518 25.484-7.704c14.015-4.237 25.825-7.414 26.245-7.059.418.353-4.595 10.624-11.14 22.833l-11.903 22.19-3.368 1.293c-1.852.709-7.545 1.291-12.653 1.291h-9.286zm-137.994-10.743-1.372-9.151-11.034-2.261-11.033-2.26-4.544 2.977-4.542 2.976-1.485-11.198-1.486-11.2-2.922-3.228-2.92-3.228-2.351-18.917-2.351-18.915 2.527-6.103 2.527-6.101-2.529-28.038c-1.393-15.423-3.29-33.61-4.213-40.419l-1.684-12.38 4.627-3.032 4.629-3.033 16.807-2.097c16.596-2.072 38.702-3.592 63.525-4.369 11.427-.358 16.951.333 29.2 3.653l3.716 1.008V91.758H213.555l-1.139 5.84-1.138 5.839 9.556 3.873c5.256 2.13 10.567 5.093 11.805 6.583l2.249 2.71-4.145 12.044c-9.238 26.853-19.206 44.667-19.206 34.325 0-3.425-12.724-18.848-14.273-17.3-.53.531 1.001 3.67 3.405 6.972l4.37 6.008 1.448 9.349 1.451 9.352-2.285-1.412c-1.255-.775-2.878-4.114-3.602-7.42l-1.321-6.006-7.868-7.656-7.87-7.656-9.556-4.315-9.556-4.317-19.113-.04-19.112-.04 5.64 4.767c3.101 2.623 6.853 7.157 8.333 10.077l2.695 5.309 3.625 34.611c4.247 40.559 2.34 37.006 18.656 34.772 7.192-.983 13.079-1.376 13.079-.875 0 1.759-42.243 59.969-43.519 59.969-.327 0-1.212-4.118-1.966-9.151zm308.812-1.098c0-5.638-1.034-20.531-2.3-33.094-1.263-12.566-1.92-23.226-1.455-23.689.771-.771 32.825-7.29 35.847-7.295.715 0 1.937 6.222 2.716 13.829l1.416 13.827-2.463 4.755c-4.281 8.258-29.856 41.915-31.852 41.915h-1.909zm-104.057-42.277c0-.514 3.371-6.961 7.488-14.326l7.488-13.389 4.723.17c2.597.09 15.472-.592 28.613-1.523l23.891-1.688-.02 7.135-.04 7.136-36.069 8.715c-19.839 4.793-36.07 8.293-36.07 7.777zm98.803-26.912c-.505-2.444-3.419-33.589-6.475-69.214l-5.553-64.77-3.98-6.816-3.977-6.817 6.468-19.29 6.471-19.29 8.804 7.222c4.842 3.972 11.572 11.12 14.953 15.885l6.148 8.662 2.705 14.4 2.706 14.399-1.952 3.646c-2.485 4.644-2.489 6.633 0 5.101l1.941-1.2 1.357 15.409c.745 8.474 2.996 33.884 5.003 56.463l3.648 41.056-1.868 1.157c-1.028.635-9.429 2.795-18.669 4.797l-16.8 3.649zm-68.83-30.151c.452-1.073 3.572-9.106 6.933-17.853 3.364-8.744 7.488-17.334 9.166-19.086l3.052-3.186-1.323 5.401-1.321 5.4 5.434 5.863c2.988 3.224 6.946 8.789 8.794 12.365l3.361 6.498-1.974 1.975-1.975 1.977-15.484 1.298-15.481 1.299zm22.453-27.693c-.803-.803-1.459-3.281-1.459-5.509v-4.049l3.716.715 3.716.716v8.082l-2.257.754c-1.24.412-2.911.09-3.716-.709zM230.65 89.634V87.51h6.621l-1.312 2.124c-.722 1.168-2.213 2.124-3.311 2.124-1.1 0-1.998-.956-1.998-2.124zm34.417-13.895c.641-2.285 3.844-14.19 7.116-26.453 3.27-12.264 6.023-22.464 6.112-22.667.08-.204 13.06-1.402 28.819-2.664 34.12-2.734 44.984-3.73 73.885-6.776l21.868-2.305 7.331 1.375 7.329 1.375v3.272c0 1.8-2.058 10.358-4.575 19.017l-4.574 15.743h-8.698c-4.785 0-34.5 2.365-66.036 5.246l-57.337 5.237-6.203 6.875-6.201 6.874zm-8.509-39.62c-1.402-1.401-2.549-3.346-2.549-4.322v-1.773l4.247 2.273c2.336 1.25 4.248 3.195 4.248 4.322 0 2.812-2.876 2.57-5.946-.5z" />
</svg>
