<svg viewBox="0 0 96 96" xmlns="http://www.w3.org/2000/svg" stroke-linecap="round" stroke-linejoin="round">
	<circle cx="48" cy="48" r="41" fill="none" stroke="var(--wa-color-yellow-20)" stroke-width="4" />
	<circle cx="48" cy="48" r="41" fill="var(--wa-color-yellow-50)" />

	<path fill="var(--wa-color-yellow-05)" d="m14.901 26.871.554-.983 2.968 3.302-.554.983-2.885-.708 2.097 2.11-.554.983-4.36-.83.58-1.03 3.084.786-2.271-2.228.526-.936 3.09.774-2.275-2.223ZM16.448 24.674l2.088-2.58.68.552-1.396 1.725.611.495 1.26-1.558.677.547-1.256 1.562.616.498 1.434-1.772.68.55-2.124 2.627-3.27-2.646ZM24.838 21.742l-.72-.343-1.322 1.248.297.743-.82.775-1.575-4.298.82-.775 4.17 1.847-.85.803Zm-2.379.068.847-.8-1.449-.694.602 1.494ZM25.442 15.937c.436-.308.855-.443 1.244-.402.39.04.72.247.99.63.288.406.387.806.307 1.201-.084.39-.347.746-.783 1.054l-.612.433.673.95-.897.635-2.43-3.433 1.508-1.068Zm1.208 1.8c.181-.129.292-.274.324-.436.037-.166-.008-.333-.13-.504-.117-.167-.256-.26-.421-.275-.164-.023-.337.033-.519.162l-.568.402.746 1.053.568-.403ZM29.899 13.146a2.397 2.397 0 0 1 1.157-.285 2.102 2.102 0 0 1 1.857 1.15 2.141 2.141 0 0 1-.111 2.202 2.335 2.335 0 0 1-.894.79 2.437 2.437 0 0 1-1.163.288 2.184 2.184 0 0 1-1.087-.32 2.161 2.161 0 0 1-.778-.86 2.097 2.097 0 0 1-.25-1.114 2.11 2.11 0 0 1 .367-1.064c.223-.325.524-.59.902-.787Zm.44.819a1.106 1.106 0 0 0-.441.412 1.17 1.17 0 0 0-.165.593c-.005.213.045.424.15.626.108.208.253.369.432.492.182.115.379.182.586.202.204.016.399-.025.585-.122a1.05 1.05 0 0 0 .431-.407 1.244 1.244 0 0 0-.001-1.224 1.28 1.28 0 0 0-.421-.484 1.155 1.155 0 0 0-.575-.208 1.05 1.05 0 0 0-.58.12ZM36.18 10.6l.964-.33 1.363 3.978-.908.311-2.62-1.76.815 2.379-.97.332-1.364-3.979.914-.313 2.631 1.775-.826-2.393ZM40.99 9.345l1.185-.139 1.498 2.3.916-2.584 1.186-.14.491 4.178-.965.113-.318-2.645-.804 2.354-.703.083-1.335-2.102.311 2.645-.97.115-.492-4.178ZM49.727 8.765c.425.019.81.132 1.144.332a2.102 2.102 0 0 1 1.033 1.925 2.141 2.141 0 0 1-1.197 1.852c-.35.177-.744.256-1.17.237a2.437 2.437 0 0 1-1.15-.332 2.184 2.184 0 0 1-.781-.82 2.161 2.161 0 0 1-.245-1.134c.018-.408.13-.77.342-1.09.212-.322.499-.567.848-.738.356-.171.75-.25 1.176-.232Zm-.029.93c-.21-.009-.404.037-.588.137a1.17 1.17 0 0 0-.44.431c-.11.181-.172.389-.182.617-.01.233.034.446.128.642.1.19.237.346.406.468.17.115.359.178.568.187.21.009.398-.037.577-.137a1.244 1.244 0 0 0 .61-1.06 1.28 1.28 0 0 0-.122-.63 1.155 1.155 0 0 0-.394-.468 1.05 1.05 0 0 0-.563-.187ZM55.4 9.493c.43.084.796.248 1.092.484.301.237.512.535.633.883.12.348.145.72.065 1.126-.08.406-.245.747-.495 1.022a1.894 1.894 0 0 1-.932.574c-.37.105-.776.116-1.217.03l-1.737-.343.814-4.127 1.778.35Zm-.612 3.261c.206.04.404.03.583-.038a1.02 1.02 0 0 0 .459-.344 1.43 1.43 0 0 0 .257-.591c.046-.236.04-.451-.024-.653a1.021 1.021 0 0 0-.312-.496 1.132 1.132 0 0 0-.547-.267l-.677-.133-.469 2.378.73.144ZM61.424 12.48a3.56 3.56 0 0 0-.58-.537 2.073 2.073 0 0 0-.562-.322.563.563 0 0 0-.332-.03c-.089.02-.146.078-.177.168a.323.323 0 0 0 .022.255.85.85 0 0 0 .191.222c.085.067.207.159.375.279.252.173.453.33.602.468.155.141.267.318.342.527.075.209.067.44-.023.707-.09.268-.235.472-.44.612-.206.14-.445.211-.722.225a2.3 2.3 0 0 1-.861-.131 3.185 3.185 0 0 1-.932-.504 3.011 3.011 0 0 1-.686-.763l.677-.677c.14.243.329.471.563.677.24.208.466.347.676.418a.7.7 0 0 0 .393.037.294.294 0 0 0 .22-.204.31.31 0 0 0-.025-.262.663.663 0 0 0-.202-.227c-.084-.072-.212-.16-.377-.272a5.772 5.772 0 0 1-.6-.455 1.387 1.387 0 0 1-.342-.508c-.071-.201-.063-.433.025-.694.082-.245.218-.44.412-.584.194-.143.43-.222.7-.238.28-.02.575.022.894.13.29.097.56.233.81.412.252.173.466.365.63.573l-.671.698ZM66.091 18.226l-.088-.297c-.041-.112-.087-.275-.148-.487-.46.073-.876.006-1.248-.202a1.748 1.748 0 0 1-.568-.495 1.22 1.22 0 0 1-.24-.629c-.02-.224.033-.442.147-.646a.955.955 0 0 1 .51-.458 2.09 2.09 0 0 1 .76-.118 2.099 2.099 0 0 1-.002-.551c.026-.157.078-.3.15-.431.153-.273.367-.435.646-.492.285-.054.585.01.905.189.204.114.367.253.492.411.124.159.19.326.208.501a.828.828 0 0 1-.103.506.882.882 0 0 1-.544.445c-.237.068-.525.092-.872.085.052.227.127.524.234.886a3.42 3.42 0 0 0 .566-.447l.352.76a3.112 3.112 0 0 1-.687.455l.092.291.167.526-.729.198Zm0-3.916c-.082.147-.113.35-.097.605.198.001.366-.015.491-.055a.467.467 0 0 0 .292-.229c.05-.089.06-.18.034-.27a.352.352 0 0 0-.18-.217.371.371 0 0 0-.308-.041.438.438 0 0 0-.232.207Zm-1.079 2.29c.173.097.381.13.624.101a17.682 17.682 0 0 1-.307-1.16 1.02 1.02 0 0 0-.361.08.446.446 0 0 0-.221.2.522.522 0 0 0-.044.435c.05.145.157.26.31.345ZM21.098 70.186l.821.866-.946 2.577 2.619-.814.821.866-3.051 2.895-.67-.705 1.93-1.838-2.368.765-.487-.514.885-2.328-1.933 1.834-.673-.71 3.052-2.894ZM24.855 74.025l2.582 2.084-.55.682-1.728-1.395-.494.611 1.56 1.26-.547.676-1.563-1.254-.497.616 1.774 1.433-.55.681-2.629-2.122 2.642-3.272ZM29.692 79.283a1.577 1.577 0 0 0-.19-.605 1.156 1.156 0 0 0-.387-.432 1.107 1.107 0 0 0-1.157-.026 1.256 1.256 0 0 0-.46.44 1.28 1.28 0 0 0-.208.607c-.014.212.02.404.108.589.092.18.23.331.407.444.147.094.32.155.526.18.205.023.412.013.619-.033l.17.927c-.321.08-.652.096-.998.047a2.296 2.296 0 0 1-.897-.323 2.238 2.238 0 0 1-.796-.85 2.119 2.119 0 0 1-.245-1.088c.015-.382.134-.747.357-1.096a2.097 2.097 0 0 1 1.935-.993 2.373 2.373 0 0 1 1.796 1.045c.19.271.311.561.369.862l-.95.305ZM31.235 78.553l.99.474-.742 1.548 1.53.734.743-1.547.99.474-1.819 3.793-.99-.475.698-1.455-1.531-.734-.698 1.455-.99-.475 1.819-3.792ZM36.9 85.414l-.04-.797-1.726-.57-.513.615-1.07-.354 3.032-3.428 1.072.354.356 4.547-1.11-.367Zm-1.19-2.061 1.106.365-.077-1.605-1.029 1.24ZM42.297 82.341l1.002.193-.796 4.13-.943-.181-1.398-2.83-.475 2.469-1.008-.194.796-4.13.949.182 1.4 2.849.473-2.488ZM44.031 82.574l1.093.107-.41 4.186-1.092-.107zM48.903 84.235a1.577 1.577 0 0 0-.481-.414 1.156 1.156 0 0 0-.556-.162 1.107 1.107 0 0 0-.997.588 1.256 1.256 0 0 0-.158.617 1.28 1.28 0 0 0 .143.625c.1.187.23.333.403.443.173.104.37.16.58.163.174.002.355-.038.542-.126.187-.088.356-.206.508-.354l.634.697c-.231.238-.503.427-.823.567a2.296 2.296 0 0 1-.932.199 2.238 2.238 0 0 1-1.125-.301 2.119 2.119 0 0 1-.783-.795 2.178 2.178 0 0 1-.275-1.12 2.097 2.097 0 0 1 1.12-1.865 2.373 2.373 0 0 1 2.077-.06c.305.13.56.313.768.538l-.645.76ZM53.311 86.659l-.364-.71-1.808.191-.215.77-1.121.12 1.354-4.373 1.121-.119 2.197 3.998-1.164.123Zm-1.933-1.389 1.158-.122-.73-1.431-.428 1.553ZM54.214 82.27l1.072-.239.713 3.191 1.74-.389.204.914-2.81.628-.919-4.104ZM58.725 81.196l1.107-.445 2.048 1.827.207-2.734 1.108-.446 1.57 3.903-.903.362-1-2.47-.158 2.484-.657.264-1.84-1.68.994 2.472-.907.365-1.57-3.902ZM63.771 79.023l.97-.515 1.97 3.717-.97.514zM68.557 77.656a3.56 3.56 0 0 0-.782.114 2.073 2.073 0 0 0-.603.237.563.563 0 0 0-.231.24c-.04.082-.032.162.02.243.049.076.12.123.212.143a.85.85 0 0 0 .293-.01c.105-.024.253-.061.452-.118.293-.087.54-.146.742-.175.207-.033.415-.009.625.064.21.072.385.223.537.46.152.239.22.48.2.727-.02.248-.114.479-.276.704a2.3 2.3 0 0 1-.642.588 3.185 3.185 0 0 1-.977.411c-.356.078-.699.098-1.024.057l-.104-.952c.278.043.574.039.881-.015.313-.057.562-.146.75-.265a.7.7 0 0 0 .274-.283.294.294 0 0 0-.02-.3.31.31 0 0 0-.22-.144.663.663 0 0 0-.304.016c-.109.02-.258.065-.448.123-.285.089-.533.147-.731.182-.202.03-.407.01-.61-.052-.202-.07-.377-.222-.526-.454a1.164 1.164 0 0 1-.196-.686c.01-.242.095-.475.253-.696.16-.23.378-.434.66-.615.259-.165.534-.291.83-.374.293-.087.577-.133.842-.132l.123.962ZM71.802 75.327a1.577 1.577 0 0 0-.634-.012 1.156 1.156 0 0 0-.532.23 1.107 1.107 0 0 0-.392 1.09c.038.208.129.397.272.574.144.177.313.31.51.39.196.081.39.11.592.085.2-.03.388-.113.55-.245.136-.11.25-.256.337-.443.088-.187.143-.386.166-.597l.933.133c-.026.33-.115.649-.272.96a2.296 2.296 0 0 1-.59.75c-.323.26-.677.423-1.059.485a2.119 2.119 0 0 1-1.11-.112 2.178 2.178 0 0 1-.926-.687 2.097 2.097 0 0 1-.328-2.15 2.373 2.373 0 0 1 1.56-1.372c.318-.094.631-.117.934-.076l-.01.997ZM71.61 73.602l2.328-2.365.624.615-1.557 1.582.56.551 1.406-1.428.62.61L74.19 74.6l.564.555 1.6-1.625.624.615-2.37 2.407-2.997-2.95ZM74.327 70.783l.685-.858 2.557 2.038 1.11-1.394.732.583-1.795 2.253-3.289-2.622ZM76.36 68.202l.601-.92 2.737 1.79.975-1.492.784.512-1.576 2.411-3.52-2.301ZM83.294 64.646l-.794-.082-.827 1.62.53.6-.514 1.004-2.924-3.521.513-1.005 4.548.342-.532 1.042Zm-2.219.861.53-1.036-1.598-.17 1.068 1.206ZM81.081 58.846l.344-.96 3.96 1.418-.324.904-3.01.949 2.367.847-.346.966-3.96-1.418.326-.91 3.029-.947-2.386-.849ZM82.4 53.654l2.458 2.111 1.31.296-.241 1.071-1.282-.29-3.162.874.242-1.07 1.98-.575-1.547-1.346.242-1.07ZM35.355 69.02l3.205-.859.226.846-2.144.574.203.76 1.936-.519.225.84-1.934.525.205.765 2.202-.59.227.846-3.263.874-1.088-4.062ZM43.118 68.25c-.25-.07-.51-.112-.779-.127a2.097 2.097 0 0 0-.647.043.593.593 0 0 0-.293.159.24.24 0 0 0-.054.239.31.31 0 0 0 .159.199.846.846 0 0 0 .282.08c.106.009.261.017.466.024.304.006.558.025.761.057.207.032.399.115.576.25.176.13.3.331.373.602.072.27.063.521-.028.753a1.36 1.36 0 0 1-.477.587 2.332 2.332 0 0 1-.79.367 3.18 3.18 0 0 1-1.055.096 2.927 2.927 0 0 1-.994-.255l.19-.939c.253.126.535.21.844.252.313.04.578.031.794-.027a.7.7 0 0 0 .348-.186c.077-.083.1-.18.07-.292a.304.304 0 0 0-.166-.204.708.708 0 0 0-.294-.077 4.893 4.893 0 0 0-.464-.018 5.867 5.867 0 0 1-.752-.047 1.326 1.326 0 0 1-.566-.234c-.171-.128-.292-.325-.364-.592a1.175 1.175 0 0 1 .02-.713 1.32 1.32 0 0 1 .452-.587c.219-.171.491-.299.816-.386.293-.079.595-.114.903-.106.308.005.589.048.842.129l-.173.953ZM44.106 66.675l3.483-.934.235.875-1.217.327.854 3.187-1.061.284-.854-3.187-1.206.323-.234-.875ZM49.569 68.54a.505.505 0 0 1 .397.043.503.503 0 0 1 .235.322.526.526 0 0 1-.041.403.506.506 0 0 1-.322.235.501.501 0 0 1-.391-.044.525.525 0 0 1-.237-.328.517.517 0 0 1 .037-.395.505.505 0 0 1 .322-.236ZM56.36 66.832l.229.852-3.095.83-.194-.7 1.071-1.915c.084-.15.146-.296.188-.435a.654.654 0 0 0 .028-.337.304.304 0 0 0-.19-.222.57.57 0 0 0-.367-.001 1.356 1.356 0 0 0-.508.285 2.422 2.422 0 0 0-.473.53l-.615-.673c.452-.556.959-.91 1.524-1.061.27-.072.523-.093.76-.061.24.031.442.112.605.242a.92.92 0 0 1 .334.507c.056.208.045.443-.034.705a4.136 4.136 0 0 1-.39.862l-.606 1.057 1.733-.465ZM58.452 62.793c.576-.154 1.066-.095 1.47.178.409.271.702.74.88 1.404.178.665.158 1.219-.058 1.662-.214.438-.609.734-1.185.889-.583.156-1.079.098-1.487-.173-.405-.277-.697-.747-.875-1.412-.178-.665-.16-1.216.054-1.654.217-.44.618-.737 1.201-.894Zm.211.788c-.255.069-.411.218-.469.449-.06.227-.029.567.092 1.019.123.456.267.769.433.94.164.167.374.217.629.148.248-.066.4-.215.459-.445.062-.232.032-.574-.089-1.027-.121-.452-.266-.761-.435-.927-.166-.17-.372-.223-.62-.157ZM61.128 62.114l1.843-.494 1.088 4.063-1.06.284-.856-3.194-.783.21-.232-.869ZM66.941 62.345c.341-.042.637.01.886.154.253.139.42.361.502.667.07.259.064.507-.018.744a1.38 1.38 0 0 1-.448.623 2.166 2.166 0 0 1-.824.401c-.298.08-.603.114-.917.103a2.527 2.527 0 0 1-.822-.171l.194-.854c.208.098.419.157.631.179.213.022.416.007.61-.045.224-.06.384-.149.481-.266a.459.459 0 0 0 .079-.425.444.444 0 0 0-.279-.323c-.143-.052-.328-.048-.556.013l-.684.183-.155-.58.697-1.155-1.554.416-.217-.812 2.84-.76.164.614-.835 1.311.225-.017Z" />

	<!-- Lexi back -->
	<g fill="var(--wa-color-yellow-20)" fill-rule="evenodd" stroke="var(--wa-color-yellow-20)" stroke-width="6">
		<path d="M4.879 38.319c1.411-.199 2.557.775 3.44 2.922l.16 1.132c.277 1.967-.034 8.716-.933 20.248l.261 1.856.186-.026 16.579-6.31.954.055 2.174-.685.928-.13c1.373-.194 2.086-.105 2.138.266l.026.186c.157 1.113-3.428 3.069-10.755 5.868-4.97 2.605-8.722 4.275-11.255 5.01-3.468-.344-5.363-1.66-5.685-3.949l.946-17.601-.259-3.181-.844-3.306c.18-1.413.764-2.19 1.754-2.329l.185-.026Z" />
		<path d="M33.231 39.422c4.704-.549 7.404.48 8.103 3.086.524 1.955-1.8 4.602-6.972 7.941l-3.301 1.292-1.502.402-.278.482.354 1.322c.604 2.256 3.043 2.812 7.314 1.668l.381-.102.15-.235.23.133.199-.053 11.799-5.781.609.031c.473 1.761-2.688 4.568-9.481 8.419-1.022.675-2.668 1.316-4.936 1.924-6.068.526-9.74-1.594-11.017-6.361l-.479-3.306-.836-1.599c-.336-1.255.63-2.187 2.899-2.795 2.217-3.698 4.472-5.854 6.764-6.468Zm-2.724 8.005.199-.053c3.234-.867 5.482-2.543 6.743-5.028-.413-.575-.999-.76-1.759-.556l-.381.101c-1.641.44-3.258 2.225-4.851 5.355l.049.181Z" />
		<path d="M46.988 35.794c1.581-.424 3.392 1.193 5.432 4.849l.562-.15c1.897-3.393 3.558-5.28 4.982-5.661 1.014-.272 1.887.283 2.619 1.665l.145.543c-.233.722-1.124 1.814-2.672 3.277-1.641 2.225-2.405 3.548-2.292 3.97 1.986 2.391 4.351 4.584 7.097 6.577.091.338-.289.899-1.14 1.683-1.556.417-4.059-1.079-7.508-4.488l-.229-.132-.181.048c-.945.771-1.721 3.281-2.328 7.531l-1.749.857c-.967-.181-1.609-.863-1.926-2.046-.113-2.401.739-5.591 2.557-9.57l-4.853-6.383c-.205-1.393.29-2.25 1.484-2.57Z" />
		<path d="m64.121 29.457.217-.058c1.304-.35 2.208.417 2.712 2.3.137 1.67-.373 2.661-1.532 2.971l-.217.058c-1.448.388-2.444-.431-2.987-2.459l-.058-.217c-.35-1.303.272-2.168 1.865-2.595Zm1.2 9.689c1.693-.052 2.78.82 3.262 2.618l.04 8.837-.159.275-1.955.524c-.435.116-1.194-.689-2.278-2.417l-.058-.217c-.888-5.97-.506-9.177 1.148-9.62Z" />
		<path d="M71.796 21.571c-1.135.304-2.677 1.351-2.169 2.841l1.203 3.765.359 3.822.036.135c.314 1.027.966 1.408 1.955 1.143 1.726-.462 2.355-2.626 1.103-9.952-.379-1.416-1.112-2.12-2.367-1.784l-.12.03Z" />
		<path d="M71.1 21.484c-1.134.304-2.677 1.351-2.168 2.841l1.203 3.765.358 3.822.037.135c.314 1.027.965 1.408 1.955 1.143 1.726-.462 2.355-2.626 1.103-9.952-.379-1.416-1.112-2.12-2.367-1.784l-.121.03Z" />
		<path d="M83.262 25.161c1.863-.098 2.879.172 3.051.812.278 1.038-1.154 2.501-4.295 4.391l-.23.663.257.959 8.038 5.742c1.171 1.329 1.857 2.368 2.057 3.116.544 2.027-.617 3.755-3.481 5.182L86.1 47.119c-3.854.243-6.037-.594-6.552-2.513.03-.564.244-1.022.641-1.374l.199-.054c1.33.717 2.786.864 4.367.44 2.393-1.158 3.519-1.997 3.38-2.516-.242-.905-2.74-2.673-7.494-5.306-1.749-1.458-2.77-2.737-3.065-3.835-.717-2.679 1.178-4.946 5.686-6.8Z" />
	</g>

	<g fill="var(--wa-color-yellow-70)">
		<path d="M3.9 37.339c1.41-.198 2.557.776 3.44 2.922l.159 1.132c.277 1.967-.034 8.717-.933 20.249l.262 1.856.185-.027 16.579-6.309.954.055 2.175-.685.927-.131c1.374-.193 2.086-.104 2.139.267l.026.185c.157 1.114-3.429 3.07-10.756 5.868-4.97 2.605-8.721 4.276-11.255 5.011-3.467-.344-5.362-1.661-5.684-3.95l.946-17.6-.259-3.181-.844-3.307c.179-1.413.764-2.189 1.753-2.329l.186-.026Z" />
		<path d="M32.252 38.442c4.703-.549 7.404.48 8.102 3.087.524 1.955-1.8 4.602-6.971 7.94l-3.301 1.292-1.503.403-.278.482.354 1.321c.605 2.257 3.043 2.813 7.315 1.668l.38-.102.151-.234.229.132.199-.053 11.799-5.781.61.031c.472 1.762-2.689 4.568-9.482 8.419-1.022.675-2.667 1.316-4.936 1.924-6.067.527-9.739-1.594-11.017-6.36l-.478-3.306-.836-1.6c-.336-1.255.63-2.186 2.899-2.794 2.216-3.698 4.471-5.854 6.764-6.469Zm-2.725 8.006.199-.054c3.235-.866 5.482-2.542 6.744-5.027-.413-.575-1-.761-1.76-.557l-.38.102c-1.641.44-3.258 2.225-4.851 5.355l.048.181Z" />
		<path d="M46.009 34.814c1.581-.423 3.392 1.193 5.432 4.85l.561-.15c1.898-3.393 3.558-5.28 4.982-5.662 1.014-.271 1.887.284 2.62 1.665l.145.543c-.233.723-1.124 1.815-2.672 3.277-1.642 2.225-2.406 3.549-2.293 3.971 1.986 2.391 4.352 4.583 7.098 6.576.09.338-.29.899-1.14 1.683-1.557.417-4.06-1.078-7.508-4.487l-.23-.133-.181.049c-.944.77-1.72 3.28-2.328 7.53l-1.749.857c-.967-.181-1.608-.862-1.925-2.045-.113-2.401.739-5.592 2.557-9.571l-4.853-6.382c-.205-1.394.289-2.251 1.484-2.571ZM63.142 28.477l.217-.058c1.303-.349 2.207.418 2.711 2.3.138 1.671-.373 2.661-1.531 2.972l-.218.058c-1.448.388-2.443-.432-2.987-2.459l-.058-.217c-.349-1.304.273-2.169 1.866-2.596Zm1.199 9.69c1.693-.053 2.781.82 3.263 2.618l.039 8.836-.159.276-1.955.523c-.434.117-1.193-.689-2.277-2.416l-.058-.217c-.889-5.97-.506-9.177 1.147-9.62ZM70.816 20.591c-1.134.304-2.677 1.352-2.168 2.841l1.203 3.766.359 3.822.036.134c.314 1.028.965 1.409 1.955 1.143 1.726-.462 2.355-2.625 1.103-9.952-.379-1.416-1.112-2.12-2.367-1.783l-.121.029Z" />
		<path transform="translate(0.2,0.2)" d="M82.283 24.181c1.862-.098 2.879.173 3.05.812.278 1.038-1.153 2.502-4.294 4.391l-.23.663.257.959 8.038 5.743c1.171 1.329 1.856 2.367 2.057 3.115.543 2.028-.617 3.755-3.481 5.182l-2.559 1.093c-3.854.244-6.038-.594-6.552-2.512.03-.565.243-1.023.64-1.375l.2-.053c1.33.717 2.785.863 4.366.44 2.393-1.159 3.52-1.997 3.381-2.516-.243-.905-2.741-2.674-7.494-5.306-1.749-1.459-2.771-2.737-3.065-3.835-.718-2.679 1.177-4.946 5.686-6.801Z" />
	</g>
</svg>
